<?xml version="1.0" encoding="utf-8"?>
<!-- Generator: Adobe Illustrator 25.4.1, SVG Export Plug-In . SVG Version: 6.00 Build 0)  -->
<svg version="1.1" xmlns="http://www.w3.org/2000/svg" xmlns:xlink="http://www.w3.org/1999/xlink" x="0px" y="0px"
	 viewBox="0 0 600 600" style="enable-background:new 0 0 600 600;" xml:space="preserve">
<style type="text/css">
	.st0{fill:#EAEDF4;}
	.st1{fill:#FFFFFF;}
	.st2{fill:#C5CDDD;}
	.st3{fill:none;stroke:#25272D;stroke-width:22;stroke-miterlimit:10;}
	.st4{fill:#25272D;}
</style>
<g id="background">
</g>
<g id="objects">
	<g>
		<ellipse transform="matrix(0.7071 -0.7071 0.7071 0.7071 -124.2641 300)" class="st0" cx="300" cy="300" rx="250.6" ry="250.61"/>
		<path class="st1" d="M301.99,350.03c-115.5,23.55-219.96-21.11-233.04-99.53C55.93,172.12,139.3,89.15,254.74,65.55
			c115.46-23.49,220.02,21.15,233.04,99.53C500.75,243.52,417.49,326.47,301.99,350.03z"/>
		<path class="st2" d="M506.49,442.01c-78.44,114.05-234.46,142.91-348.51,64.46C77.01,450.78,38.98,355.99,51.82,264.85
			c17.26,47.11,48.78,89.51,93.26,120.1c114.05,78.45,270.07,49.59,348.51-64.46c22.74-33.06,36.47-69.65,41.7-106.84
			C562.26,287.32,554.32,372.46,506.49,442.01z"/>
		
			<ellipse transform="matrix(0.9161 -0.401 0.401 0.9161 -95.1155 145.4563)" class="st3" cx="300" cy="300" rx="250.6" ry="250.61"/>
	</g>
	<g>
		<path class="st4" d="M457.36,240.99c-5.8-0.45-12.05-0.45-17.85-0.89l-36.14-1.78c-6.25-0.45-12.05-0.45-18.29-0.89
			c-1.34,0-2.68,0.45-4.46,0.45c-12.94-0.89-57.56-3.57-67.38-4.02c-2.23-1.78-4.46-4.02-6.69-6.25c-2.23,2.23-4.02,4.02-6.25,5.8
			c-16.06-0.89-62.02-4.02-69.16-4.46c-2.23,0-4.91,0.45-7.14,0.89c-25.43-2.23-50.42-4.46-75.85-6.69
			c-0.89-20.53-1.78-36.14-2.68-57.11c6.25,0,12.49,0,18.74,0l37.93,0.45c6.25,0,12.49,0,18.74,0c1.34,2.68,4.91,4.46,9.37,4.46
			c4.46,0.45,8.48-1.34,9.37-4.46c18.29,0,37.03,0,55.33,0l36.59-0.45c18.74,0,37.03,0,55.33,0c2.68,0.89,5.35,1.78,7.59,2.68
			l5.8-2.68c16.51,0.45,33.46,0.45,50.42,0.45C452.89,191.46,455.12,216,457.36,240.99z"/>
		<path class="st4" d="M457.36,340.93c-5.8-0.45-12.05-0.45-17.85-0.89l-36.14-1.78c-6.25-0.45-12.05-0.45-18.29-0.89
			c-1.34,0-2.68,0.45-4.46,0.45c-12.94-0.89-57.56-3.57-67.38-4.02c-2.23-1.79-4.46-4.02-6.69-6.25c-2.23,2.23-4.02,4.02-6.25,5.8
			c-16.06-0.89-62.02-4.02-69.16-4.46c-2.23,0-4.91,0.45-7.14,0.89c-25.43-2.23-50.42-4.46-75.85-6.69
			c-0.89-20.53-1.78-36.14-2.68-57.11c6.25,0,12.49,0,18.74,0l37.93,0.45c6.25,0,12.49,0,18.74,0c1.34,2.68,4.91,4.46,9.37,4.46
			c4.46,0.45,8.48-1.34,9.37-4.46c18.29,0,37.03,0,55.33,0l36.59-0.45c18.74,0,37.03,0,55.33,0c2.68,0.89,5.35,1.78,7.59,2.68
			l5.8-2.68c16.51,0.45,33.46,0.45,50.42,0.45C452.89,291.4,455.12,315.94,457.36,340.93z"/>
		<path class="st4" d="M457.36,440.87c-5.8-0.45-12.05-0.45-17.85-0.89l-36.14-1.79c-6.25-0.45-12.05-0.45-18.29-0.89
			c-1.34,0-2.68,0.45-4.46,0.45c-12.94-0.89-57.56-3.57-67.38-4.02c-2.23-1.79-4.46-4.02-6.69-6.25c-2.23,2.23-4.02,4.02-6.25,5.8
			c-16.06-0.89-62.02-4.02-69.16-4.46c-2.23,0-4.91,0.45-7.14,0.89c-25.43-2.23-50.42-4.46-75.85-6.69
			c-0.89-20.52-1.78-36.14-2.68-57.11c6.25,0,12.49,0,18.74,0l37.93,0.45c6.25,0,12.49,0,18.74,0c1.34,2.68,4.91,4.46,9.37,4.46
			c4.46,0.45,8.48-1.34,9.37-4.46c18.29,0,37.03,0,55.33,0l36.59-0.45c18.74,0,37.03,0,55.33,0c2.68,0.89,5.35,1.79,7.59,2.68
			l5.8-2.68c16.51,0.45,33.46,0.45,50.42,0.45C452.89,391.34,455.12,415.88,457.36,440.87z"/>
	</g>
</g>
</svg>
