<?xml version="1.0" encoding="utf-8"?>
<!-- Generator: Adobe Illustrator 25.4.1, SVG Export Plug-In . SVG Version: 6.00 Build 0)  -->
<svg version="1.1" id="Layer_1" xmlns="http://www.w3.org/2000/svg" xmlns:xlink="http://www.w3.org/1999/xlink" x="0px" y="0px"
	 viewBox="0 0 600 600" style="enable-background:new 0 0 600 600;" xml:space="preserve">
<style type="text/css">
	.st0{fill:#EAEDF4;}
	.st1{fill:#FFFFFF;}
	.st2{fill:#C5CDDD;}
	.st3{fill:none;stroke:#25272D;stroke-width:22.0004;stroke-miterlimit:10.0002;}
	.st4{enable-background:new    ;}
	.st5{fill:#25272D;}
</style>
<g id="background">
</g>
<g id="objects">
	<g>
		
			<ellipse transform="matrix(0.7071 -0.7071 0.7071 0.7071 -124.275 300.0011)" class="st0" cx="300" cy="300" rx="250.6" ry="250.6"/>
		<path class="st1" d="M302,350c-115.5,23.5-220-21.1-233-99.5c-13-78.4,70.4-161.4,185.8-184.9c115.5-23.5,220,21.2,233,99.5
			C500.8,243.5,417.5,326.5,302,350z"/>
		<path class="st2" d="M506.5,442C428,556.1,272,584.9,158,506.5C77,450.8,39,356,51.8,264.9c17.3,47.1,48.8,89.5,93.3,120.1
			c114.1,78.5,270.1,49.6,348.5-64.5c22.7-33.1,36.5-69.6,41.7-106.8C562.3,287.3,554.3,372.5,506.5,442z"/>
		
			<ellipse transform="matrix(0.9162 -0.4006 0.4006 0.9162 -95.0619 145.3283)" class="st3" cx="300" cy="300" rx="250.6" ry="250.6"/>
	</g>
	<g class="st4">
		<path class="st5" d="M376,383.1c9.3,13.8,18.2,27.5,27.1,41.3c-17,12.2-34.4,24.7-51.9,37.3c-12.2-20.3-23.9-40.1-36.1-60
			c-1.2-1.2-2-2.4-2.8-3.6c-3.2-5.3-6.5-10.5-9.7-16.2c-4.5,8.5-8.9,17.4-13.8,25.9c-1.6,1.6-3.6,3.6-5.3,5.3c0,0.4,0,0.8-0.4,1.6
			v2.8c-0.4,0.4-0.4,1.2-0.4,1.6c-7.7,14.2-15.4,28.8-23.1,43.3c-5.3-2.4-10.5-4.5-15.8-6.5l-31.2-13.4c-5.3-2-10.5-4.5-15.8-6.5
			c2.8-5.3,6.1-10.1,8.9-15l17.8-30.4c2.8-4.9,6.1-10.1,8.9-15c0.8-1.2,1.2-2.8,1.6-4.1c1.6-2.8,3.2-5.3,5.3-8.1l9.7-15.8
			c2-2.8,3.6-5.7,5.3-8.1c3.6-6.5,7.3-13,11.3-19.4c-1.2-2.4-2.8-4.9-4.5-7.7l-8.5-14.6c-1.6-2.8-2.8-5.3-4.5-7.7
			c-3.2-5.7-6.5-11.3-10.1-17c-1.6-2-2.8-4.1-4.5-5.7c-12.2-21.5-24.3-42.9-36.1-64.4l48.6-26.3c13.4,20.7,21.9,38.1,35.2,58.3
			c-1.2,2.4-0.4,6.1,1.6,9.3c2.4,3.6,8.1,4.9,10.5,4.9c2.8,3.6,5.3,7.7,7.7,11.7c2.8-4.5,6.1-9.3,8.9-14.2l2.4-6.5
			c13.4-21.1,26.7-41.7,40.1-62.4c17,8.1,30,14.2,47,21.9c-11.7,21.9-23.5,43.3-35.2,64.8c-2.4,0-5.7,2.4-7.7,6.1
			c-2,3.6-2.4,7.7-0.8,10.1c-1.6,3.2-3.2,6.1-5.3,9.3l-9.7,19c-2,2.8-3.6,6.1-5.3,9.3c10.9,18.2,21.9,36.5,33.2,53.9
			c0.8,2.4,1.6,4.9,2,7.3C372.7,381.1,374.3,382.3,376,383.1z"/>
	</g>
</g>
</svg>
